<?xml version="1.0" standalone="no"?>
<!DOCTYPE svg PUBLIC "-//W3C//DTD SVG 20010904//EN"
 "http://www.w3.org/TR/2001/REC-SVG-20010904/DTD/svg10.dtd">
<svg version="1.0" xmlns="http://www.w3.org/2000/svg"
 width="600.000000pt" height="600.000000pt" viewBox="0 0 600.000000 600.000000"
 preserveAspectRatio="xMidYMid meet">
<metadata>
Created by potrace 1.14, written by Peter Selinger 2001-2017
</metadata>
<g transform="translate(0.000000,600.000000) scale(0.100000,-0.100000)"
fill="#000000" stroke="none">
<path d="M2877 5994 c-1 -1 -47 -4 -103 -8 -55 -4 -109 -8 -120 -10 -10 -2
-46 -7 -79 -10 -33 -4 -67 -9 -75 -11 -8 -2 -31 -7 -50 -10 -434 -74 -933
-298 -1295 -583 -313 -246 -597 -578 -775 -903 -43 -78 -140 -275 -140 -283 0
-3 -11 -29 -24 -58 -75 -169 -163 -501 -191 -728 -3 -25 -9 -76 -14 -115 -10
-75 -7 -544 3 -610 4 -22 11 -71 17 -110 26 -167 84 -419 108 -464 9 -17 48
-18 703 -17 l693 1 2 244 c1 159 6 253 13 272 21 50 49 60 180 62 65 1 122 6
126 10 11 11 11 8 19 333 4 165 8 327 10 362 2 51 0 62 -14 63 -9 0 -85 1
-169 2 -108 2 -155 6 -160 14 -4 7 -7 58 -7 114 1 75 5 103 16 110 8 5 87 9
176 9 l162 0 0 118 c0 65 3 135 6 155 5 27 4 38 -6 41 -8 3 -100 7 -204 9
-110 2 -199 9 -211 15 -11 6 -44 53 -73 104 -29 51 -59 99 -66 107 -7 7 -38
14 -71 16 -81 3 -104 17 -144 86 -19 33 -44 75 -55 94 -15 26 -17 36 -7 47 10
12 24 11 99 -8 137 -34 399 -75 633 -99 244 -25 308 -29 585 -42 321 -15 1121
-8 1380 12 28 2 93 6 145 10 52 3 113 8 135 10 38 5 100 10 210 20 28 3 82 9
120 14 39 6 89 12 111 15 84 10 252 38 372 62 60 12 87 13 94 6 14 -14 -59
-188 -87 -208 -11 -7 -55 -15 -97 -17 -41 -3 -81 -7 -87 -11 -6 -4 -38 -54
-71 -111 -34 -57 -68 -106 -78 -110 -9 -4 -102 -9 -207 -11 -104 -2 -196 -6
-203 -9 -9 -3 -11 -38 -8 -147 2 -79 5 -149 5 -155 1 -10 42 -13 170 -13 161
0 170 -1 176 -20 9 -28 10 -209 1 -218 -4 -4 -79 -7 -165 -8 -87 -1 -163 -4
-168 -7 -7 -4 -9 -53 -8 -129 13 -512 17 -614 26 -623 5 -5 63 -10 128 -11
122 -1 158 -12 178 -52 4 -9 10 -132 13 -272 l5 -255 688 -1 c541 -1 692 2
701 12 21 20 94 314 112 449 3 28 8 57 9 66 13 69 20 208 20 404 -1 208 -4
278 -20 385 -3 19 -8 49 -10 65 -72 512 -334 1080 -688 1490 -70 81 -260 270
-335 334 -228 193 -535 381 -792 486 -36 14 -74 30 -85 35 -35 16 -237 80
-316 100 -159 41 -348 73 -509 86 -69 6 -358 12 -363 8z"/>
<path d="M2212 3976 c-4 -6 -7 -33 -8 -61 -1 -27 -3 -90 -4 -138 -2 -49 2 -93
7 -98 6 -6 134 -8 324 -7 l314 3 2 145 c1 91 -2 147 -9 151 -5 4 -132 7 -282
8 -149 1 -286 3 -304 5 -18 1 -36 -3 -40 -8z"/>
<path d="M3769 3986 c-3 -3 -137 -6 -299 -7 -161 0 -299 -3 -307 -6 -10 -4
-13 -38 -13 -148 0 -79 4 -146 8 -149 7 -4 428 -9 595 -7 l47 1 -3 151 c-4
132 -12 181 -28 165z"/>
<path d="M2204 3415 c-10 -8 -15 -80 -20 -310 -3 -165 -7 -326 -8 -357 -4
-106 -101 -95 822 -94 446 1 814 4 818 9 9 9 9 29 0 437 -4 168 -12 309 -16
314 -13 13 -1579 14 -1596 1z"/>
<path d="M199 1944 c-7 -9 -3 -27 13 -61 l23 -48 650 0 650 0 0 60 0 60 -663
1 c-514 0 -665 -2 -673 -12z"/>
<path d="M4463 1944 c-2 -6 -3 -33 -1 -60 l3 -49 648 -1 c479 0 650 3 657 11
5 7 16 30 24 53 12 32 12 43 3 49 -7 5 -308 8 -671 9 -502 0 -659 -2 -663 -12z"/>
<path d="M323 1654 c-5 -13 61 -142 78 -154 4 -3 261 -5 571 -5 l563 0 0 85 0
85 -603 2 c-510 1 -604 -1 -609 -13z"/>
<path d="M4464 1656 c-3 -7 -4 -46 -2 -87 l3 -74 568 0 568 -1 39 73 c22 39
37 79 34 87 -5 14 -76 15 -605 15 -482 0 -601 -2 -605 -13z"/>
<path d="M695 1280 c-108 -4 -130 -8 -133 -21 -1 -9 29 -57 69 -107 l72 -92
2296 0 2297 0 72 91 c72 92 83 115 59 125 -18 7 -4561 11 -4732 4z"/>
<path d="M1072 772 c-81 -6 -67 -29 97 -156 42 -32 103 -77 136 -100 l60 -41
1630 -1 1630 -1 48 30 c56 35 216 156 272 206 78 68 228 63 -1905 65 -1059 0
-1944 0 -1968 -2z"/>
</g>
</svg>
