<?xml version="1.0" standalone="no"?>
<!DOCTYPE svg PUBLIC "-//W3C//DTD SVG 20010904//EN"
 "http://www.w3.org/TR/2001/REC-SVG-20010904/DTD/svg10.dtd">
<svg version="1.0" xmlns="http://www.w3.org/2000/svg"
 width="627.000000pt" height="627.000000pt" viewBox="0 0 627.000000 627.000000"
 preserveAspectRatio="xMidYMid meet">
<metadata>
Created by potrace 1.14, written by Peter Selinger 2001-2017
</metadata>
<g transform="translate(0.000000,627.000000) scale(0.100000,-0.100000)"
fill="#000000" stroke="none">
<path d="M2180 6005 c0 -101 -3 -135 -12 -136 -7 0 -130 -1 -273 -1 l-261 -1
1 -133 c1 -84 -3 -135 -10 -137 -5 -2 -128 -3 -272 -2 l-263 1 0 -136 0 -137
-135 1 c-128 1 -135 0 -136 -19 0 -11 -1 -73 -1 -137 l0 -118 -137 0 -137 0 1
-135 1 -135 -137 0 -137 0 0 -357 c0 -197 -1 -381 -1 -410 l-1 -52 -92 0 c-51
1 -112 0 -135 0 l-43 -1 0 -815 0 -815 38 -1 c20 0 81 0 135 0 72 1 97 -2 98
-11 0 -7 1 -191 2 -408 l2 -395 125 -2 c68 -2 129 -4 135 -7 7 -2 11 -50 10
-135 l-1 -131 137 0 136 0 1 -107 c0 -60 1 -121 1 -138 l1 -30 135 1 134 2 3
-137 3 -136 268 0 c147 0 268 -2 268 -5 1 -3 3 -61 4 -130 2 -69 3 -128 4
-132 0 -5 123 -8 271 -8 l270 0 0 -135 0 -135 955 0 955 0 0 135 0 135 272 2
272 3 1 127 c0 69 4 130 8 135 5 4 126 8 270 8 l262 0 3 136 3 136 129 0 c72
0 133 2 136 6 4 3 6 65 6 137 l-1 130 138 0 137 0 -1 131 c-1 98 2 132 12 136
7 3 68 6 135 7 l123 1 1 405 1 405 44 2 c24 1 86 2 137 2 l92 1 -2 816 -3 817
-127 -2 c-87 -1 -129 3 -134 10 -4 7 -7 191 -7 411 l-1 398 -136 0 -136 0 1
135 1 135 -136 0 -137 0 -1 130 c0 72 -3 134 -6 138 -2 4 -62 7 -133 6 l-128
0 -5 135 -5 136 -260 1 c-143 1 -265 2 -270 3 -7 1 -10 47 -10 124 0 67 -1
127 -3 133 -2 9 -75 12 -260 12 -141 0 -263 1 -269 1 -10 1 -13 35 -13 136 l0
135 -955 0 -955 0 0 -135z"/>
</g>
</svg>
