<?xml version="1.0" encoding="UTF-8"?>
<svg id="Layer_2" data-name="Layer 2" xmlns="http://www.w3.org/2000/svg" viewBox="0 0 639.81 589.14">
  <defs>
    <style>
      .cls-1 {
        fill: #f95d41;
      }

      .cls-2 {
        fill: #fc1ebf;
      }

      .cls-3 {
        fill: #020101;
      }

      .cls-4 {
        fill: #f53d7c;
      }

      .cls-5 {
        fill: #f903f9;
      }

      .cls-6 {
        fill: #fd7b01;
      }
    </style>
  </defs>
  <g id="Layer_1-2" data-name="Layer 1">
    <g>
      <path class="cls-6" d="M201.35,215.71c1.29,1.87,.53,3.91,.24,5.79-1.05,6.8-1.19,13.63-.45,20.42,.51,4.68-.49,6.61-5.69,6.34-8.3-.43-16.64-.14-24.97-.11-6.3,.02-6.93,.65-7.01,6.78-.05,3.99-.1,7.99-.09,11.98,0,8.08,.17,8.28,8.48,8.33,7.99,.05,15.99,.13,23.97-.1,3.58-.1,4.92,.73,4.78,4.7-.78,23.29-1.27,46.59-1.87,69.89-.17,6.51-.24,6.57-6.91,6.59-5.16,.02-10.33-.12-15.48,.04-8.06,.24-12.56,4.86-12.59,12.91-.06,14.82-.11,29.64,.04,44.45,.04,3.47-1.07,4.56-4.54,4.55-46.62-.09-93.23-.1-139.85-.02-3.07,0-4.49-1.17-5.31-3.97-5.96-20.32-10.33-40.94-12.24-62.05-.18-1.95-.16-3.94-1.88-5.33v-38.99c1.46,1.7,1.01,3.78,1.02,5.72,.06,7.25,.02,14.51,.02,21.77,.84-10.17,.85-20.34,.83-30.51,0-1.17-.82-1.73-1.87-1.98v-6c1.3-1,1.45-2,0-3v-3c2.66,.35,1.76-1.83,1.88-2.94,2.33-22.42,6.92-44.33,13.85-65.8,13.46-41.7,34.6-79.05,63.46-111.92C121.17,62.44,172.89,29.82,234.14,12.54c20.05-5.66,40.49-9.51,61.38-10.48,15.98-.01,31.96-.02,47.94-.04,32.04,1.77,62.84,9.18,92.59,20.9,33.86,13.34,64.48,31.98,92.1,55.85,22.16,19.14,41.25,40.8,57.58,64.96,21.54,31.88,36.57,66.67,45.35,104.1,3.34,14.25,6.19,28.64,6.73,43.35,.01,14.08,0,28.16,.06,42.24,0,1.7-.65,3.82,1.93,4.47v8c-2.23-.51-1.77,1.1-1.83,2.32-1.18,22.58-6.18,44.45-12.36,66.1-.8,2.81-2.28,3.95-5.34,3.94-46.65-.08-93.3-.09-139.96,.02-3.64,0-4.41-1.32-4.38-4.66,.15-14.66,.1-29.32,.05-43.99-.03-8.61-4.6-13.18-13.26-13.3-5.66-.08-11.33-.13-16.99,.03-3.31,.09-4.93-1.07-5-4.54-.46-24.32-.95-48.64-1.55-72.95-.07-2.98,1.18-3.65,3.84-3.63,9,.09,18-.12,26.99,.04,4.42,.08,6.44-1.44,6.16-6.12-.3-4.98-.23-10-.03-14.99,.17-4.33-1.79-6.03-5.95-6.01-9,.06-18-.22-26.99,.07-4.04,.13-5.17-1.32-5.13-5.1,.07-7.99-.06-16-.4-23.99-.14-3.34,1.04-4.31,4.24-4.34,11.49-.13,22.98-.7,34.47-.68,5.16,0,8.46-2.02,10.82-6.42,2.67-4.98,5.8-9.71,8.37-14.74,1.59-3.1,3.73-4.44,7.12-4.23,1.48,.09,3.02-.43,4.48-.24,9,1.19,13.9-3.22,16.38-11.43,.86-2.84,2.3-5.5,3.51-8.23,.75-1.7,1.71-3.56,.38-5.17-1.34-1.62-3.39-.93-5.17-.6-9.33,1.71-18.63,3.56-27.98,5.13-35.04,5.89-70.38,8.82-105.82,10.65-55.96,2.9-111.92,2.73-167.82-1.2-33.9-2.38-67.65-6.21-100.85-13.87-1.13-.26-2.26-.6-3.34-1-1.75-.66-3.24-.47-4.48,1.04-1.19,1.45-.61,2.81,.21,4.13,3.43,5.5,6.88,10.98,10.33,16.47,2.13,3.39,5.56,4.39,9.12,4.01,7.9-.85,12.54,2.84,15.5,9.76,1.37,3.19,3.41,6.08,5.04,9.16,1.8,3.39,4.22,5.96,8.1,6.84,.37,1.87,1.88,1.6,3.16,1.6,12.64-.01,25.27-.05,37.91-.09Z"/>
      <path class="cls-1" d="M637.81,291.19c1.15,1.74-.37,4.41,1.99,5.72v12c-1.73,7.66-1.66,15.33,0,22.99v6c-2.58-.64-1.93-2.77-1.93-4.47-.05-14.08-.05-28.16-.06-42.24Z"/>
      <path class="cls-1" d="M295.52,2.06c.79-.98,1.17-1.84-.61-2.06h3c-.64,2.22,1.15,1.55,2,1.5,13.35-.81,26.69-.87,40.04,.04,.86,.06,2.66,.67,1.94-1.54h2c-1.75,.33-1.23,1.15-.44,2.03-15.98,.01-31.96,.02-47.94,.04Z"/>
      <path class="cls-1" d="M0,302.91c1.06,.25,1.87,.81,1.87,1.98,.02,10.17,.01,20.34-.83,30.51,0-7.26,.04-14.51-.02-21.77-.02-1.94,.44-4.02-1.02-5.72v-5Z"/>
      <path class="cls-6" d="M639.81,331.9c-1.66-7.66-1.73-15.33,0-22.99v22.99Z"/>
      <path class="cls-3" d="M0,293.91c1.45,1,1.3,2,0,3v-3Z"/>
      <path class="cls-6" d="M233.97,286.71c-.13-14.36-.87-11.48,11.1-11.5,51.78-.1,103.55,.04,155.33-.07,4.12,0,5.4,1.12,5.46,5.28,.37,23.14,1.04,46.27,1.58,69.4,.14,6.17-.17,6.51-6.41,6.52-54.44,.01-108.88,0-163.32-.03-1.3,0-2.68,.37-3.83-.62,.03-22.99,.06-45.99,.09-68.98Z"/>
      <path class="cls-5" d="M319.95,557.81c68.29,0,136.57-.01,204.86,.06,1.76,0,4.37-1.32,5.24,1.31,.87,2.61-1.74,3.5-3.28,4.86-9.33,8.21-19.38,15.48-29.61,22.51-2.57,1.77-5.25,2.53-8.37,2.53-112.26-.06-224.51-.13-336.77,.06-7.54,.01-12.23-4.55-17.5-8.17-7.64-5.26-14.74-11.31-21.96-17.16-1.4-1.14-3.73-2.2-2.78-4.69,.91-2.41,3.19-1.26,4.81-1.26,68.45-.06,136.91-.05,205.36-.05Z"/>
      <path class="cls-2" d="M75.51,525.92c-5.68-5.36-9.97-11.85-14.61-18.06-1.73-2.31-1.51-4.04,1.9-4.12,1.33-.03,2.66-.03,4-.03,168.99,0,337.98,0,506.96,0,1.33,0,2.67,0,3.99,.08,2.16,.14,2.72,1.91,1.73,3.12-5.05,6.2-8.58,13.69-15.52,18.28-2.38,1.13-4.92,.57-7.38,.57-158.03,.03-316.06,.03-474.09,.03-2.33,0-4.66,.08-6.99,.13Z"/>
      <path class="cls-4" d="M98.97,462.14c19.82,0,39.64,.1,59.45-.08,4-.03,5.52,.91,5.46,5.23-.17,12.71,.02,12.72-12.68,12.72-34.47,0-68.94-.08-103.42,.1-3.91,.02-6.17-1.15-7.68-4.61-1.26-2.88-2.75-5.68-4.35-8.39-2.39-4.05-.38-5,3.27-4.99,3.16,0,6.33,.02,9.49,.02,16.82,0,33.64,0,50.46,0Z"/>
      <path class="cls-4" d="M540.53,462.12c19.81,0,39.63,0,59.44,0,5.45,0,6.06,.96,3.69,5.71q-6.07,12.18-19.5,12.18c-33.8,0-67.6,.02-101.4-.02-7.87,0-6.72,.81-6.76-6.49-.07-11.36-.02-11.36,11.59-11.36,17.65,0,35.3,0,52.95,0v-.02Z"/>
      <path class="cls-6" d="M301.94,247.82c-21.29,.09-42.58,.18-63.88,.29-2.36,.01-3.3-1.17-3.24-3.39,.25-8.82,.52-17.63,.73-26.45,.04-1.86,.75-2.67,2.68-2.65,21.29,.29,42.58,.53,63.86,.79-.05,10.47-.11,20.94-.16,31.41Z"/>
      <path class="cls-6" d="M337.85,216.24c21.12-.2,42.23-.37,63.35-.62,2.24-.03,2.83,.89,2.87,2.95,.18,8.81,.45,17.62,.74,26.44,.06,1.96-.41,3.15-2.72,3.13-21.44-.15-42.88,.48-64.32-.39,.02-10.5,.05-21,.07-31.51Z"/>
      <path class="cls-1" d="M92.7,431.64c21.99,0,43.99,.07,65.98-.07,3.67-.02,5.39,.6,5.19,4.83-.43,8.9,.75,7.48-7.43,7.49-41.82,.06-83.64,.03-125.46,.04-6.59,0-9.89-3.36-9.83-9.99,.01-1.48,.73-2.14,2.08-2.23,1.33-.08,2.66-.08,4-.08,21.83,0,43.65,0,65.48,0Z"/>
      <path class="cls-1" d="M545.36,443.92c-21.47,0-42.94-.25-64.4,.16-5.87,.11-4.88-3.07-4.99-6.51-.11-3.54-.32-6.09,4.92-6.06,44.1,.23,88.2,.13,132.3,.14,5.79,0,6.05,.84,4.11,6.43-1.6,4.6-4.02,6.08-9.03,5.99-20.96-.36-41.93-.15-62.9-.16Z"/>
      <path class="cls-4" d="M75.51,525.92c2.33-.04,4.66-.13,6.99-.13,158.03,0,316.06,0,474.09-.03,2.46,0,5,.56,7.38-.57-.03,1.1-.73,1.34-1.66,1.33-2.33-.01-4.66,0-6.99,0-157.65,0-315.3,0-472.95-.03-2.28,0-4.66,.59-6.87-.58Z"/>
      <path class="cls-1" d="M233.97,286.71c-.03,22.99-.06,45.99-.09,68.98-2.1-.83-1.63-2.69-1.59-4.26,.54-21.57,1.11-43.15,1.68-64.72Z"/>
      <path class="cls-1" d="M201.35,215.71c-12.64,.03-25.27,.08-37.91,.09-1.28,0-2.79,.27-3.16-1.6,12.95,.22,25.9,.43,38.84,.7,.75,.02,1.48,.53,2.22,.81Z"/>
      <path class="cls-1" d="M337.85,216.24c-.02,10.5-.05,21-.07,31.51-1.24-.23-1.5-1.22-1.5-2.21-.04-8.87-.05-17.74-.04-26.61,0-1.17,.18-2.33,1.61-2.69Z"/>
      <path class="cls-1" d="M301.94,247.82c.05-10.47,.1-20.94,.16-31.41,.38,.48,1.1,.96,1.1,1.44,.06,9.59,.05,19.18,.02,28.77,0,.73-.5,1.17-1.27,1.21Z"/>
    </g>
  </g>
</svg>