<?xml version="1.0" standalone="yes"?>
<svg xmlns="http://www.w3.org/2000/svg" width="400" height="400">
<path style="fill:#ffffff; stroke:none;" d="M0 0L0 400L400 400L400 0L0 0z"/>
<path style="fill:#4a3c4a; stroke:none;" d="M351 37L352 38L351 37z"/>
<path style="fill:#070609; stroke:none;" d="M229 100C219.753 100.006 210.824 101.863 204.329 109.093C200.341 113.532 198.633 119.964 192.996 122.821C185.2 126.772 176.092 122.655 168.015 127.814C158.512 133.883 158.108 143.928 151.61 151.985C145.405 159.678 134.793 160.553 128.329 168.04C122.679 174.585 124.026 183.35 119.297 189.907C114.464 196.608 105.049 196.945 99.0154 202.213C81.0249 217.92 94.013 235.887 104 251C98.1033 252.919 81.1758 255.81 78.0864 261.419C76.016 265.178 81.5925 270.34 83.6505 273C91.6884 283.39 100.176 293.445 108 304C97.824 308.661 88.6017 318.753 80 325.92L50 350.753C47.6424 352.719 40.5844 356.885 41.7515 360.721C43.3739 366.053 59.6555 358.78 63 357.667C85.2355 350.262 107.757 343.72 130 336.333C138.595 333.479 147.297 330.647 156 328.141C159.113 327.245 165.078 326.499 166.928 323.49C170.369 317.893 156.391 304.893 153 301C171.2 301 183.947 291.112 184 272C202.22 278.791 223.063 270.48 224 249C237.232 258.008 238.832 273.333 259 270.815C271.186 269.293 281.722 257.8 291 250.651C307.061 238.276 339.138 222.108 329.532 197C326.638 189.437 320.948 183.361 316.13 177C311.781 171.258 307.669 164.136 301 161L301 160C305.327 159.911 320.861 159.825 322.252 154.772C323.565 150.003 315.481 142.477 312.873 139C302.615 125.322 290.465 111.856 282 97C293.082 92.315 303.333 82.5215 313 75.3712C324.609 66.7849 336.333 58.3558 348 49.8488C350.618 47.9401 359.508 43.4091 358.248 39.2778C356.541 33.6786 336.942 40.938 333 41.7901C306.232 47.5769 279.694 54.5252 253 60.6512C242.652 63.026 232.381 65.7758 222 68C218.881 68.6683 212.771 69.0479 211.137 72.3032C209.589 75.3863 212.878 78.7653 214.58 81C219.4 87.3295 224.357 93.5365 229 100z"/>
<path style="fill:#a09da1; stroke:none;" d="M334 41L335 42L334 41M317 45L318 46L317 45z"/>
<path style="fill:#4a3c4a; stroke:none;" d="M313 46L314 47L313 46z"/>
<path style="fill:#a25697; stroke:none;" d="M219 75C229.619 96.3226 249.676 115.074 264.116 134C268.709 140.02 274.992 152.459 282.171 155.397C290.109 158.645 305.759 153.535 314 152L285.373 113L275.117 97.1736L291 83.5756L340 48C330.849 45.221 313.294 52.8068 304 55.1266C276.263 62.0499 247.313 71.1874 219 75z"/>
<path style="fill:#4a3c4a; stroke:none;" d="M332 48L333 49L332 48z"/>
<path style="fill:#a09da1; stroke:none;" d="M300 49L301 50L300 49z"/>
<path style="fill:#4a3c4a; stroke:none;" d="M296 50L297 51L296 50M315 52L316 53L315 52z"/>
<path style="fill:#a09da1; stroke:none;" d="M342 53L343 54L342 53z"/>
<path style="fill:#a25697; stroke:none;" d="M279 54L280 55L279 54z"/>
<path style="fill:#a09da1; stroke:none;" d="M262 58L263 59L262 58z"/>
<path style="fill:#4a3c4a; stroke:none;" d="M258 59L259 60L258 59M323 59L324 60L323 59M277 61L278 62L277 61M331 61L332 62L331 61z"/>
<path style="fill:#a09da1; stroke:none;" d="M245 62L246 63L245 62z"/>
<path style="fill:#4a3c4a; stroke:none;" d="M241 63L242 64L241 63M260 65L261 66L260 65z"/>
<path style="fill:#a09da1; stroke:none;" d="M224 67L225 68L224 67z"/>
<path style="fill:#4a3c4a; stroke:none;" d="M312 67L313 68L312 67M239 70L240 71L239 70z"/>
<path style="fill:#a09da1; stroke:none;" d="M316 72L317 73L316 72z"/>
<path style="fill:#4a3c4a; stroke:none;" d="M222 74L223 75L222 74z"/>
<path style="fill:#ffffff; stroke:none;" d="M232 83L258 115C264.181 104.682 261.81 86.7962 264 75L232 83z"/>
<path style="fill:#4a3c4a; stroke:none;" d="M219 76L220 77L219 76z"/>
<path style="fill:#a25697; stroke:none;" d="M305 80L306 81L305 80z"/>
<path style="fill:#a09da1; stroke:none;" d="M262 86L263 87L262 86z"/>
<path style="fill:#4a3c4a; stroke:none;" d="M286 86L287 87L286 86M221 89L222 90L221 89z"/>
<path style="fill:#a09da1; stroke:none;" d="M241 94L242 95L241 94z"/>
<path style="fill:#4a3c4a; stroke:none;" d="M274 95L275 96L274 95M236 98L237 99L236 98M229 100L230 101L229 100z"/>
<path style="fill:#a09da1; stroke:none;" d="M246 100L247 101L246 100M213 102L214 103L213 102M208 105L209 106L208 105z"/>
<path style="fill:#ffffff; stroke:none;" d="M222 106.482C208.352 108.722 207.37 121.786 196.999 127.991C188.719 132.945 178.575 128.089 170.09 134.108C162.531 139.471 162.171 149.121 156.62 155.996C150.28 163.85 139.688 164.63 133.34 172.043C127.883 178.417 129.151 187.342 124.2 193.91C116.144 204.595 100.155 202.862 96.6806 218C94.3822 228.013 100.38 235.544 106.119 243C115.875 255.675 125.581 268.392 135.424 281C142.404 289.94 150.757 297.749 163 294.211C194.948 284.977 166.488 252.406 156.374 239C154.445 236.443 143.858 225.935 146.83 222.636C150.088 219.019 160.245 234.767 162 237C172.876 250.841 187.639 279.071 208.985 265.03C211.997 263.049 214.4 260.256 215.95 257C224.24 239.587 204.061 222.388 194.424 210C192.457 207.47 181.269 195.942 184.698 192.832C188.295 189.568 199.661 207.396 201.626 210C213.771 226.099 232.914 262.916 254.468 236.907C269.688 218.54 244.502 196.694 234.13 183C231.99 180.176 219.267 167.206 222.722 163.752C226.062 160.412 237.082 177.559 239 180C249.557 193.434 266.677 226.288 287.996 211.348C296.734 205.225 299.622 193.441 294.672 184C283.452 162.601 263.861 143.145 249.119 124C242.308 115.155 234.832 104.377 222 106.482z"/>
<path style="fill:#4a3c4a; stroke:none;" d="M227 106L228 107L227 106z"/>
<path style="fill:#a09da1; stroke:none;" d="M251 106L252 107L251 106z"/>
<path style="fill:#4a3c4a; stroke:none;" d="M243 107L244 108L243 107M244 108L245 109L244 108z"/>
<path style="fill:#a09da1; stroke:none;" d="M256 112L257 113L256 112M259 112L260 113L259 112z"/>
<path style="fill:#a25697; stroke:none;" d="M244 118L245 119L244 118z"/>
<path style="fill:#4a3c4a; stroke:none;" d="M297 129L298 130L297 129z"/>
<path style="fill:#a09da1; stroke:none;" d="M305 129L306 130L305 129M164 130L165 131L164 130z"/>
<path style="fill:#4a3c4a; stroke:none;" d="M262 131L263 132L262 131M162 132L163 133L162 132M172 132L173 133L172 132M300 133L301 134L300 133z"/>
<path style="fill:#a09da1; stroke:none;" d="M308 133L309 134L308 133z"/>
<path style="fill:#4a3c4a; stroke:none;" d="M169 134L170 135L169 134M159 136L160 137L159 136z"/>
<path style="fill:#a09da1; stroke:none;" d="M166 137L167 138L166 137z"/>
<path style="fill:#4a3c4a; stroke:none;" d="M303 137L304 138L303 137z"/>
<path style="fill:#a09da1; stroke:none;" d="M311 137L312 138L311 137z"/>
<path style="fill:#4a3c4a; stroke:none;" d="M261 140L262 141L261 140z"/>
<path style="fill:#a25697; stroke:none;" d="M314 141L315 142L314 141z"/>
<path style="fill:#4a3c4a; stroke:none;" d="M317 145L318 146L317 145M320 149L321 150L320 149z"/>
<path style="fill:#a09da1; stroke:none;" d="M160 150L161 151L160 150M271 153L272 154L271 153z"/>
<path style="fill:#4a3c4a; stroke:none;" d="M279 153L280 154L279 153M297 154L298 155L297 154z"/>
<path style="fill:#a09da1; stroke:none;" d="M157 155L158 156L157 155M313 158L314 159L313 158M151 161L152 162L151 161z"/>
<path style="fill:#4a3c4a; stroke:none;" d="M278 162L279 163L278 162z"/>
<path style="fill:#ffffff; stroke:none;" d="M286 162C291.333 170.535 300.142 177.855 302.471 188C307.997 212.076 284.711 223.066 265 219C268.944 236.163 251.602 250.889 236 253C249.686 279.365 275.563 254.807 290 243.576C303.957 232.719 332.514 218.714 322.647 197C319.511 190.097 313.66 183.93 309 178C302.352 169.54 297.107 163.497 286 162z"/>
<path style="fill:#4a3c4a; stroke:none;" d="M289 162L290 163L289 162M133 163L134 164L133 163M292 170L293 171L292 170z"/>
<path style="fill:#a09da1; stroke:none;" d="M131 174L132 175L131 174M288 175L289 176L288 175z"/>
<path style="fill:#4a3c4a; stroke:none;" d="M129 178L130 179L129 178z"/>
<path style="fill:#a09da1; stroke:none;" d="M318 180L319 181L318 180M240 181L241 182L240 181M128 182L129 183L128 182z"/>
<path style="fill:#4a3c4a; stroke:none;" d="M294 183L295 184L294 183z"/>
<path style="fill:#a09da1; stroke:none;" d="M295 185L296 186L295 185M236 186L237 187L236 186z"/>
<path style="fill:#a25697; stroke:none;" d="M317 189L318 190L317 189z"/>
<path style="fill:#4a3c4a; stroke:none;" d="M119 190L120 191L119 190z"/>
<path style="fill:#a09da1; stroke:none;" d="M184 191L185 192L184 191M188 192L189 193L188 192z"/>
<path style="fill:#4a3c4a; stroke:none;" d="M250 194L251 195L250 194M328 194L329 195L328 194z"/>
<path style="fill:#a09da1; stroke:none;" d="M112 195L113 196L112 195z"/>
<path style="fill:#a25697; stroke:none;" d="M123 195L124 196L123 195z"/>
<path style="fill:#a09da1; stroke:none;" d="M109 196L110 197L109 196z"/>
<path style="fill:#4a3c4a; stroke:none;" d="M122 196L123 197L122 196M184 197L185 198L184 197z"/>
<path style="fill:#a09da1; stroke:none;" d="M104 198L105 199L104 198z"/>
<path style="fill:#4a3c4a; stroke:none;" d="M118 199L119 200L118 199z"/>
<path style="fill:#a09da1; stroke:none;" d="M114 201L115 202L114 201M111 202L112 203L111 202M295 202L296 203L295 202z"/>
<path style="fill:#4a3c4a; stroke:none;" d="M324 202L325 203L324 202z"/>
<path style="fill:#a25697; stroke:none;" d="M257 203L258 204L257 203z"/>
<path style="fill:#4a3c4a; stroke:none;" d="M294 204L295 205L294 204M198 205L199 206L198 205z"/>
<path style="fill:#a09da1; stroke:none;" d="M253 208L254 209L253 208z"/>
<path style="fill:#4a3c4a; stroke:none;" d="M261 208L262 209L261 208M262 209L263 210L262 209z"/>
<path style="fill:#a09da1; stroke:none;" d="M324 209L325 210L324 209M194 210L195 211L194 210z"/>
<path style="fill:#4a3c4a; stroke:none;" d="M257 214L258 215L257 214M291 216L292 217L291 216M201 219L202 220L201 219z"/>
<path style="fill:#a25697; stroke:none;" d="M267 219L268 220L267 219z"/>
<path style="fill:#4a3c4a; stroke:none;" d="M285 219L286 220L285 219z"/>
<path style="fill:#a09da1; stroke:none;" d="M327 219L328 220L327 219M147 220L148 221L147 220z"/>
<path style="fill:#a25697; stroke:none;" d="M148 220L149 221L148 220z"/>
<path style="fill:#4a3c4a; stroke:none;" d="M265 220L266 221L265 220z"/>
<path style="fill:#a25697; stroke:none;" d="M325 222L326 223L325 222z"/>
<path style="fill:#4a3c4a; stroke:none;" d="M315 223L316 224L315 223M96 226L97 227L96 226z"/>
<path style="fill:#a09da1; stroke:none;" d="M265 226L266 227L265 226z"/>
<path style="fill:#4a3c4a; stroke:none;" d="M215 227L216 228L215 227M156 229L157 230L156 229z"/>
<path style="fill:#a25697; stroke:none;" d="M258 229L259 230L258 229z"/>
<path style="fill:#a09da1; stroke:none;" d="M211 232L212 233L211 232M219 232L220 233L219 232z"/>
<path style="fill:#4a3c4a; stroke:none;" d="M311 234L312 235L311 234M255 235L256 236L255 235z"/>
<path style="fill:#a09da1; stroke:none;" d="M163 238L164 239L163 238z"/>
<path style="fill:#4a3c4a; stroke:none;" d="M104 240L105 241L104 240M293 240L294 241L293 240M258 241L259 242L258 241z"/>
<path style="fill:#a09da1; stroke:none;" d="M302 241L303 242L302 241z"/>
<path style="fill:#4a3c4a; stroke:none;" d="M247 242L248 243L247 242z"/>
<path style="fill:#a25697; stroke:none;" d="M159 243L160 244L159 243z"/>
<path style="fill:#4a3c4a; stroke:none;" d="M256 243L257 244L256 243z"/>
<path style="fill:#a09da1; stroke:none;" d="M238 246L239 247L238 246M103 249L104 250L103 249M111 249L112 250L111 249M280 250L281 251L280 250M102 251L103 252L102 251z"/>
<path style="fill:#4a3c4a; stroke:none;" d="M289 251L290 252L289 251M217 252L218 253L217 252M223 254L224 255L223 254z"/>
<path style="fill:#a09da1; stroke:none;" d="M88 256L89 257L88 256z"/>
<path style="fill:#4a3c4a; stroke:none;" d="M107 256L108 257L107 256z"/>
<path style="fill:#a25697; stroke:none;" d="M85 264C91.2405 273.436 98.9643 282.131 105.997 291C108.47 294.119 113.704 298.859 114.093 302.996C114.593 308.298 104.557 313.928 101 316.803C88.1523 327.188 71.0238 337.895 61 351L159 321C156.096 310.34 144.427 299.959 137.09 292C126.886 280.932 117.961 268.091 109 256L85 264z"/>
<path style="fill:#4a3c4a; stroke:none;" d="M271 257L272 258L271 257z"/>
<path style="fill:#a09da1; stroke:none;" d="M280 258L281 259L280 258M180 260L181 261L180 260z"/>
<path style="fill:#4a3c4a; stroke:none;" d="M121 262L122 263L121 262z"/>
<path style="fill:#a09da1; stroke:none;" d="M264 262L265 263L264 262M184 264L185 265L184 264z"/>
<path style="fill:#4a3c4a; stroke:none;" d="M206 266L207 267L206 266M80 268L81 269L80 268M266 268L267 269L266 268z"/>
<path style="fill:#a25697; stroke:none;" d="M213 269L214 270L213 269z"/>
<path style="fill:#4a3c4a; stroke:none;" d="M120 271L121 272L120 271z"/>
<path style="fill:#a09da1; stroke:none;" d="M210 271L211 272L210 271z"/>
<path style="fill:#4a3c4a; stroke:none;" d="M208 272L209 273L208 272z"/>
<path style="fill:#a09da1; stroke:none;" d="M202 274L203 275L202 274M177 277L178 278L177 277z"/>
<path style="fill:#4a3c4a; stroke:none;" d="M96 278L97 279L96 278M176 281L177 282L176 281z"/>
<path style="fill:#a09da1; stroke:none;" d="M91 282L92 283L91 282z"/>
<path style="fill:#4a3c4a; stroke:none;" d="M138 284L139 285L138 284z"/>
<path style="fill:#a25697; stroke:none;" d="M174 285L175 286L174 285z"/>
<path style="fill:#4a3c4a; stroke:none;" d="M95 287L96 288L95 287z"/>
<path style="fill:#ffffff; stroke:none;" d="M129 291L115 327L147 315L129 291z"/>
<path style="fill:#4a3c4a; stroke:none;" d="M107 292L108 293L107 292z"/>
<path style="fill:#a09da1; stroke:none;" d="M172 296L173 297L172 296M125 300L126 301L125 300z"/>
<path style="fill:#4a3c4a; stroke:none;" d="M144 300L145 301L144 300z"/>
<path style="fill:#a25697; stroke:none;" d="M106 301L107 302L106 301z"/>
<path style="fill:#4a3c4a; stroke:none;" d="M156 305L157 306L156 305z"/>
<path style="fill:#a09da1; stroke:none;" d="M101 308L102 309L101 308z"/>
<path style="fill:#4a3c4a; stroke:none;" d="M111 308L112 309L111 308z"/>
<path style="fill:#a25697; stroke:none;" d="M95 313L96 314L95 313z"/>
<path style="fill:#4a3c4a; stroke:none;" d="M105 313L106 314L105 313M155 314L156 315L155 314z"/>
<path style="fill:#a09da1; stroke:none;" d="M142 316L143 317L142 316z"/>
<path style="fill:#4a3c4a; stroke:none;" d="M89 318L90 319L89 318z"/>
<path style="fill:#a09da1; stroke:none;" d="M167 319L168 320L167 319z"/>
<path style="fill:#4a3c4a; stroke:none;" d="M155 321L156 322L155 321M133 328L134 329L133 328z"/>
<path style="fill:#a09da1; stroke:none;" d="M154 328L155 329L154 328z"/>
<path style="fill:#4a3c4a; stroke:none;" d="M82 332L83 333L82 332M114 334L115 335L114 334M135 334L136 335L135 334z"/>
<path style="fill:#a09da1; stroke:none;" d="M132 335L133 336L132 335M66 337L67 338L66 337z"/>
<path style="fill:#4a3c4a; stroke:none;" d="M76 337L77 338L76 337M92 341L93 342L92 341M113 341L114 342L113 341M89 342L90 343L89 342M94 347L95 348L94 347M70 348L71 349L70 348z"/>
<path style="fill:#a09da1; stroke:none;" d="M91 348L92 349L91 348z"/>
<path style="fill:#a25697; stroke:none;" d="M60 351L61 352L60 351z"/>
<path style="fill:#a09da1; stroke:none;" d="M69 355L70 356L69 355z"/>
<path style="fill:#4a3c4a; stroke:none;" d="M50 361L51 362L50 361z"/>
<path style="fill:#a09da1; stroke:none;" d="M47 362L48 363L47 362z"/>
</svg>
