<svg id="Layer_1" data-name="Layer 1" xmlns="http://www.w3.org/2000/svg" viewBox="0 0 512 512"><defs><style>.cls-1{fill:#cad8dd;}.cls-2{fill:#dde5e8;}.cls-3{fill:#71c6c4;}.cls-4{opacity:0.06;}.cls-5{fill:#17292d;}</style></defs><title>man-1-flat</title><path class="cls-1" d="M288,307.2H224A172.8,172.8,0,0,0,51.2,480h0a32,32,0,0,0,32,32H428.8a32,32,0,0,0,32-32h0A172.8,172.8,0,0,0,288,307.2Z"/><path class="cls-2" d="M256,0A128,128,0,0,0,128,128v38.4a128,128,0,0,0,64,110.87V332.8l64,38.4,64-38.4V277.27A128,128,0,0,0,384,166.4V128A128,128,0,0,0,256,0Z"/><path class="cls-3" d="M256,0A128,128,0,0,0,128,128v25.6l76.8-51.2S314.23,172.26,384,140.8V128A128,128,0,0,0,256,0Z"/><g class="cls-4"><path class="cls-5" d="M256,0a127.82,127.82,0,0,0-32,4.2A127.94,127.94,0,0,1,320,128v38.4a127.94,127.94,0,0,1-96,123.8A127.55,127.55,0,0,0,384,166.4V128A128,128,0,0,0,256,0Z"/></g></svg>